<?xml version="1.0" encoding="UTF-8" standalone="no"?>
<!-- Created with Inkscape (http://www.inkscape.org/) -->

<svg
   xmlns:dc="http://purl.org/dc/elements/1.1/"
   xmlns:cc="http://creativecommons.org/ns#"
   xmlns:rdf="http://www.w3.org/1999/02/22-rdf-syntax-ns#"
   xmlns:svg="http://www.w3.org/2000/svg"
   xmlns="http://www.w3.org/2000/svg"
   xmlns:sodipodi="http://sodipodi.sourceforge.net/DTD/sodipodi-0.dtd"
   xmlns:inkscape="http://www.inkscape.org/namespaces/inkscape"
   width="162.50926mm"
   height="133.15941mm"
   viewBox="0 0 162.50926 133.15941"
   version="1.1"
   id="svg8"
   inkscape:version="0.92.4 (5da689c313, 2019-01-14)"
   sodipodi:docname="quack1.svg">
  <defs
     id="defs2" />
  <sodipodi:namedview
     id="base"
     pagecolor="#474747"
     bordercolor="#666666"
     borderopacity="1.0"
     inkscape:pageopacity="0"
     inkscape:pageshadow="2"
     inkscape:zoom="1"
     inkscape:cx="75.7827"
     inkscape:cy="226.72187"
     inkscape:document-units="px"
     inkscape:current-layer="layer2"
     showgrid="false"
     fit-margin-top="0"
     fit-margin-left="0"
     fit-margin-right="0"
     fit-margin-bottom="0"
     inkscape:showpageshadow="false"
     borderlayer="true"
     inkscape:window-width="1920"
     inkscape:window-height="1017"
     inkscape:window-x="-8"
     inkscape:window-y="-8"
     inkscape:window-maximized="1" />
  <metadata
     id="metadata5">
    <rdf:RDF>
      <cc:Work
         rdf:about="">
        <dc:format>image/svg+xml</dc:format>
        <dc:type
           rdf:resource="http://purl.org/dc/dcmitype/StillImage" />
        <dc:title></dc:title>
      </cc:Work>
    </rdf:RDF>
  </metadata>
  <g
     inkscape:groupmode="layer"
     id="layer2"
     inkscape:label="Layer 1"
     transform="translate(-147.74399,-15.741238)">
    <g
       id="g5802"
       transform="translate(-0.52916662)">
      <path
         id="path4946"
         d="m 287.3375,62.706249 c -2.86422,1.533297 -5.06819,4.160895 -6.3691,7.137872 -1.30091,2.976977 -1.7364,6.286414 -1.5684,9.530878 0.28389,5.482667 2.22791,10.731881 3.175,16.139583 1.61686,9.231938 0.23397,18.968668 -3.91217,27.374178 -4.14614,8.4055 -11.03724,15.43345 -19.37117,19.72165 -6.55989,3.37537 -13.88742,5.04956 -21.22912,5.77395 -7.3417,0.7244 -14.73925,0.52924 -22.1144,0.34907 -8.99364,-0.21971 -18.05338,-0.42348 -26.84441,-2.33443 -8.79102,-1.91095 -17.40184,-5.66435 -23.71256,-12.07595 -5.2242,-5.30771 -8.61597,-12.1521 -11.1955,-19.13851 -3.12861,-8.47354 -5.192,-17.753498 -3.00349,-26.517025 0.66605,-2.667095 1.7119,-5.22323 2.49791,-7.857469 0.786,-2.63424 1.31307,-5.411343 0.90179,-8.129406 -0.45898,-3.033282 -2.05673,-5.784118 -3.94525,-8.201749 -0.74815,-0.957761 -1.55813,-1.895765 -2.02004,-3.019896 -0.23096,-0.562065 -0.37013,-1.167664 -0.35183,-1.775055 0.0183,-0.607391 0.20002,-1.216761 0.56243,-1.704531 0.3816,-0.513606 0.95116,-0.873961 1.56651,-1.04931 0.61536,-0.175349 1.27396,-0.172159 1.90057,-0.04265 1.25322,0.25902 2.34936,0.997912 3.36945,1.770608 2.46213,1.865004 4.69627,4.020457 6.74055,6.335897 3.37434,3.821927 6.29037,8.133194 10.35865,11.206044 4.18516,3.16113 9.37394,4.810773 14.5914,5.345918 5.21746,0.535146 10.48972,0.0083 15.66463,-0.845247 8.32191,-1.372612 16.58558,-3.624958 23.98355,-7.675671 4.58276,-2.509264 8.8313,-5.728067 12.09537,-9.807767 3.26408,-4.0797 5.50746,-9.059043 5.89629,-14.269316 0.11265,-1.509567 0.0755,-3.053736 0.52917,-4.497917 0.66055,-2.102697 2.39655,-3.833156 4.49792,-4.497916 1.30855,-0.413956 2.72311,-0.429699 4.07211,-0.177016 1.34901,0.252684 2.6381,0.766073 3.86079,1.389531 2.44538,1.246914 4.65189,2.93793 7.14835,4.079151 2.40364,1.098791 5.01119,1.658943 7.58593,2.25521 2.57474,0.596267 5.17156,1.248336 7.49532,2.50729 2.4396,1.321713 4.47806,3.256813 6.61458,5.027084 0.28937,0.239762 0.58486,0.480948 0.80035,0.78882 0.10774,0.153937 0.19437,0.32396 0.24292,0.505474 0.0485,0.181514 0.0581,0.374902 0.0151,0.557789 -0.0729,0.309551 -0.28984,0.56726 -0.53659,0.767894 -0.24676,0.200633 -0.52717,0.35539 -0.78538,0.541057 -0.2582,0.185666 -0.50073,0.411517 -0.62726,0.703289 -0.0633,0.145887 -0.0956,0.30654 -0.0823,0.464994 0.0133,0.158453 0.0738,0.314316 0.17942,0.433183 0.0767,0.08634 0.17562,0.151814 0.28282,0.194837 0.1072,0.04302 0.22256,0.06401 0.33799,0.06813 0.23087,0.0082 0.45886,-0.04996 0.6791,-0.119689 0.22024,-0.06973 0.43769,-0.151733 0.66487,-0.193641 0.22718,-0.04191 0.46902,-0.04135 0.68105,0.05036 0.15449,0.06682 0.28739,0.180487 0.38275,0.319193 0.0953,0.138706 0.15355,0.301792 0.17403,0.468861 0.041,0.334138 -0.0693,0.675483 -0.25898,0.953603 -0.18967,0.27812 -0.45408,0.49813 -0.73716,0.680316 -0.28308,0.182186 -0.58676,0.329564 -0.88355,0.488443 z"
         style="fill:#ffcc00;stroke:none;stroke-width:0.26458332px;stroke-linecap:butt;stroke-linejoin:miter;stroke-opacity:1"
         inkscape:connector-curvature="0" />
      <path
         id="path4944"
         d="M 297.67435,39.05397 A 26.327515,26.325888 0 0 1 271.34683,65.379858 26.327515,26.325888 0 0 1 245.01932,39.05397 26.327515,26.325888 0 0 1 271.34683,12.728083 26.327515,26.325888 0 0 1 297.67435,39.05397 Z"
         style="fill:#ffcc00;stroke-width:0.29251885"
         transform="matrix(0.99993828,0.01111043,0,1,0,0)"
         inkscape:connector-curvature="0" />
      <path
         id="path4962"
         d="m 202.53854,25.003124 c -0.75204,-0.400758 -1.481,-0.863266 -2.29465,-1.116538 -0.40682,-0.126637 -0.83354,-0.199155 -1.25911,-0.178193 -0.42556,0.02096 -0.85039,0.138196 -1.20874,0.36869 -0.3927,0.252589 -0.69282,0.632359 -0.90189,1.049857 -0.20908,0.417497 -0.33186,0.873065 -0.42103,1.331393 -0.30642,1.575041 -0.23107,3.216726 -0.66146,4.7625 -0.27807,0.998709 -0.75901,1.926486 -1.19411,2.867459 -0.4351,0.940972 -0.83168,1.920667 -0.92255,2.953374 -0.0479,0.543785 -0.009,1.097531 0.14141,1.622343 0.15021,0.524813 0.41343,1.020116 0.78463,1.420365 0.62251,0.671218 1.51643,1.042254 2.4203,1.187416 0.90387,0.145162 1.8271,0.08301 2.73907,0.0032 1.68435,-0.147387 3.36451,-0.353883 5.02709,-0.661458 2.10473,-0.389372 4.17753,-0.94009 6.21771,-1.5875 1.13356,-0.359712 2.26394,-0.752139 3.30728,-1.322916 0.77183,-0.42224 1.49733,-0.945831 2.07149,-1.612429 0.57415,-0.666598 0.99182,-1.483666 1.10352,-2.356321 0.15436,-1.205892 -0.3099,-2.469239 -1.19062,-3.307292 -0.70634,-0.672121 -1.63532,-1.063584 -2.57486,-1.32422 -0.93954,-0.260635 -1.90827,-0.404219 -2.8491,-0.660155 -1.41569,-0.385113 -2.74862,-1.018767 -4.10104,-1.5875 -1.42045,-0.597343 -2.87344,-1.127398 -4.23334,-1.852084 z"
         style="fill:#ff6600;stroke:none;stroke-width:0.26458332px;stroke-linecap:butt;stroke-linejoin:miter;stroke-opacity:1"
         transform="translate(93.265624,19.711458)"
         inkscape:connector-curvature="0" />
      <path
         id="path4966"
         d="m 282.19983,35.520309 a 6.3717356,5.9087148 0 0 1 -6.37174,5.908715 6.3717356,5.9087148 0 0 1 -6.37173,-5.908715 6.3717356,5.9087148 0 0 1 6.37173,-5.908714 6.3717356,5.9087148 0 0 1 6.37174,5.908714 z"
         style="fill:#fff6d5;stroke:none;stroke-width:0.22111204"
         inkscape:connector-curvature="0" />
      <path
         id="path4968"
         d="m 280.326,37.306248 a 3.175,3.175 0 0 1 -3.175,3.175 3.175,3.175 0 0 1 -3.175,-3.175 3.175,3.175 0 0 1 3.175,-3.175 3.175,3.175 0 0 1 3.175,3.175 z"
         style="fill:#000000;stroke:none;stroke-width:0.26458332"
         inkscape:connector-curvature="0" />
      <path
         id="path4978"
         d="M 268.55208,101.86458 C 266.28655,95.13034 260.71843,89.624506 254,87.312499 c -5.47717,-1.884855 -11.44273,-1.713993 -17.19792,-1.058333 -13.94732,1.588949 -27.4323,5.868762 -40.74583,10.318749 -6.77686,2.265135 -13.54501,4.583545 -20.10834,7.408335 -1.98205,0.85306 -3.95925,1.76039 -5.70914,3.02298 -1.74989,1.26259 -3.27541,2.91248 -4.08044,4.91452 -0.4525,1.12533 -0.66884,2.36469 -0.47819,3.5625 0.19065,1.19782 0.81379,2.34759 1.80111,3.05208 1.04986,0.74912 2.41652,0.94184 3.69782,0.79474 1.28131,-0.14709 2.50369,-0.60439 3.71051,-1.05932 5.62155,-2.11914 11.27598,-4.28014 17.19792,-5.29167 10.15388,-1.73438 20.75413,0.0391 30.1625,4.23334 4.19887,1.87186 8.17367,4.20836 12.31287,6.20872 4.1392,2.00037 8.51009,3.67974 13.08713,4.11003 3.26426,0.30688 6.60325,-0.0384 9.6911,-1.14053 3.08785,-1.10217 5.91673,-2.97239 8.03598,-5.47406 2.17506,-2.56757 3.57105,-5.76729 4.08651,-9.09259 0.51545,-3.3253 0.16146,-6.76804 -0.91151,-9.95741 z"
         style="fill:#ffbd00;fill-opacity:1;stroke:none;stroke-width:0.26458332px;stroke-linecap:butt;stroke-linejoin:miter;stroke-opacity:1"
         transform="rotate(-4.9694546,234.22578,147.14417)"
         inkscape:connector-curvature="0" />
    </g>
  </g>
</svg>
